<?xml version="1.0" encoding="UTF-8" standalone="no"?>
<!DOCTYPE svg PUBLIC "-//W3C//DTD SVG 1.1//EN" "http://www.w3.org/Graphics/SVG/1.1/DTD/svg11.dtd">
<!-- Created with Vectornator (http://vectornator.io/) -->
<svg height="280.2527029349285px" stroke-miterlimit="10" style="fill-rule:nonzero;clip-rule:evenodd;stroke-linecap:round;stroke-linejoin:round;" version="1.1" viewBox="0 0 863.6 280.253" width="863.5999435936282px" xml:space="preserve" xmlns="http://www.w3.org/2000/svg" xmlns:vectornator="http://vectornator.io" xmlns:xlink="http://www.w3.org/1999/xlink">
<defs>
<filter color-interpolation-filters="sRGB" filterUnits="userSpaceOnUse" height="305.886" id="Filter" width="889.82" x="-13.4232" y="-12.4232">
<feDropShadow dx="0" dy="-0" flood-color="#000000" flood-opacity="1" in="SourceGraphic" result="Shadow" stdDeviation="6"/>
</filter>
<filter color-interpolation-filters="sRGB" filterUnits="userSpaceOnUse" height="71.5132" id="Filter_2" width="544.094" x="222.951" y="40.4027">
<feDropShadow dx="0" dy="-0" flood-color="#000000" flood-opacity="1" in="SourceGraphic" result="Shadow" stdDeviation="3"/>
</filter>
</defs>
<clipPath id="ArtboardFrame">
<rect height="280.253" width="863.6" x="0" y="0"/>
</clipPath>
<g clip-path="url(#ArtboardFrame)" id="main" vectornator:layerName="main">
<g filter="url(#Filter)" vectornator:layerName="naviPanel" vectornator:shadowAngle="-1.56298" vectornator:shadowColor="#000000" vectornator:shadowOffset="0" vectornator:shadowOpacity="1" vectornator:shadowRadius="12">
<g opacity="1" vectornator:layerName="Group 882">
<path d="M48.0853 152.85C9.72253 133.49-5.93897 86.7996 13.1049 48.5624C32.1488 10.3251 78.6867-4.97493 117.05 14.3871C155.412 33.7492 171.074 80.4373 152.03 118.675C132.986 156.912 86.4481 172.21 48.0853 152.85Z" fill="#dc4c30" fill-rule="nonzero" opacity="1" stroke="#ffe9ab" stroke-linecap="butt" stroke-linejoin="miter" stroke-width="6.84633" vectornator:layerName="path"/>
<path d="M83.0825 161.236C71.0763 161.236 59.1317 158.415 48.0612 152.829C9.75601 133.511-5.93349 86.7478 13.0833 48.5864C22.2597 30.1789 38.0701 16.4657 57.605 9.97768C77.3156 3.43259 98.4319 5.00268 117.074 14.4073C155.38 33.7253 171.069 80.488 152.05 118.649C142.874 137.057 127.063 150.77 107.528 157.258C99.5251 159.917 91.2889 161.236 83.0825 161.236ZM82.0464 10.5687C74.3215 10.5687 66.5737 11.8102 59.0427 14.3114C40.6695 20.4138 25.797 33.31 17.1683 50.6243C-0.732564 86.5425 14.0464 130.562 50.1151 148.755C67.6645 157.607 87.5463 159.088 106.088 152.927C124.464 146.824 139.334 133.928 147.965 116.614C165.866 80.6957 151.087 36.6761 115.018 18.4831C104.594 13.2274 93.3451 10.5687 82.0464 10.5687Z" fill="#1f212b" fill-rule="nonzero" opacity="1" stroke="none" vectornator:layerName="path 1"/>
<path d="M82.6398 19.7189C47.3494 19.7189 18.7408 48.3275 18.7408 83.6179C18.7408 118.908 47.3494 147.517 82.6398 147.517C117.93 147.517 146.539 118.908 146.539 83.6179C146.539 48.3275 117.93 19.7189 82.6398 19.7189Z" fill="#fefdef" fill-rule="nonzero" opacity="1" stroke="none" vectornator:layerName="path 4"/>
<path d="M114.081 92.8042C114.976 92.8225 115.772 92.6605 116.023 91.6518C116.272 90.6545 115.852 89.9539 114.939 89.5225C114.732 89.4244 114.533 89.308 114.325 89.2076C108.189 86.1678 102.05 83.1304 95.797 80.0335C96.1895 79.625 96.4931 79.2919 96.8171 78.9769C99.2681 76.6035 101.703 74.2164 104.186 71.8773C104.951 71.1584 105.341 70.5012 104.706 69.4902C104.104 68.5317 103.346 68.6002 102.429 68.9151C99.2042 70.0242 95.9659 71.0991 92.7321 72.1808C92.3305 72.3154 91.9152 72.4159 91.3971 72.5619C91.5363 65.3413 91.6687 58.3512 91.8056 51.3611C91.8239 50.4665 91.6573 49.6678 90.6646 49.3985C89.5988 49.111 89.0557 49.7545 88.6335 50.6171C86.5454 54.871 78.5192 75.7249 78.5192 75.7249C78.5192 75.7249 55.6068 74.6592 50.4629 74.561C49.493 74.5428 48.5574 74.5884 48.2903 75.766C48.0439 76.8568 48.7491 77.3566 49.614 77.7286C49.8239 77.8199 50.0202 77.9454 50.2256 78.0458C56.401 81.1061 62.5764 84.1687 68.8499 87.277C68.5076 87.6512 68.252 87.9639 67.9621 88.2446C65.413 90.7161 62.8685 93.1899 60.3034 95.6409C59.6689 96.2479 59.0824 96.8344 59.6142 97.7747C60.1984 98.8062 61.0542 98.5027 61.9168 98.2105C65.5796 96.9736 69.2492 95.7504 73.0512 94.477C73.0695 94.9494 73.1014 95.3031 73.0946 95.6569C72.9782 102.373 72.8595 109.092 72.7295 115.808C72.7112 116.755 72.8413 117.595 73.9276 117.853C75.0093 118.108 75.5114 117.424 75.9221 116.568C77.0586 114.204 86.1528 93.409 86.1528 93.409C86.1528 93.409 110.679 92.7358 114.081 92.8042Z" fill="#ffac00" fill-rule="nonzero" opacity="1" stroke="none" vectornator:layerName="path 6"/>
<path d="M74.7004 119.05C74.479 119.05 74.2417 119.021 73.9861 118.961C71.8569 118.459 71.8979 116.446 71.9116 115.785C72.0394 109.205 72.1535 102.628 72.2699 96.0512L71.1928 96.4117C68.2876 97.3816 65.4464 98.3333 62.6075 99.2918C61.7357 99.5862 59.9899 100.173 58.947 98.3378C57.9702 96.6057 59.2322 95.3962 59.8415 94.8143C62.1168 92.6417 64.3715 90.4532 66.6308 88.2623L67.2972 87.6165L49.7569 78.9148C49.6679 78.8669 49.5789 78.8144 49.4853 78.7733C47.8422 78.0659 47.1736 76.9682 47.5022 75.5099C47.9905 73.3579 49.9691 73.3898 50.8112 73.4172L66.2406 73.7002C66.8704 73.7116 67.3725 74.2296 67.3611 74.8618C67.3497 75.4848 66.8408 75.9823 66.22 75.9823C66.2132 75.9823 66.2063 75.9823 66.1995 75.9823L50.7656 75.6993C49.8117 75.6765 49.7866 75.7609 49.7295 76.0143C49.6793 76.2379 49.6519 76.3589 50.3913 76.6783C50.5534 76.7468 50.7085 76.829 50.8592 76.9157L51.0623 77.0252L69.6843 86.2541C70.0061 86.4138 70.232 86.7128 70.2982 87.0642C70.3644 87.4157 70.2617 87.7785 70.0198 88.0455L69.7208 88.3787C69.4971 88.6298 69.2963 88.8557 69.0818 89.0634L68.2192 89.9009C65.9576 92.0963 63.696 94.2894 61.4185 96.4642C61.2542 96.6217 60.9073 96.9549 60.8731 97.085L61.0397 97.3543C61.1697 97.3931 61.5896 97.2265 61.8475 97.1397C64.7184 96.1676 67.5642 95.2182 70.4716 94.2437L73.0162 93.3925C73.3562 93.2807 73.7305 93.3309 74.0271 93.5363C74.3238 93.7417 74.5041 94.0726 74.5178 94.4332L74.5383 94.8622C74.5543 95.1589 74.5657 95.4167 74.5611 95.6769C74.4448 102.391 74.3261 109.112 74.196 115.828C74.18 116.659 74.2919 116.686 74.5132 116.738C74.746 116.786 74.8578 116.818 75.2184 116.07C76.2362 113.947 77.2746 111.837 78.3129 109.723L81.6197 102.991C81.622 102.982 81.6266 102.975 81.6288 102.968C81.6494 102.925 81.6722 102.882 81.6927 102.836L81.978 102.259L82.0031 102.27C82.3409 101.74 82.7767 101.378 83.507 101.736C84.251 102.101 84.2053 102.708 84.0045 103.256L84.0251 103.265L83.7946 103.735C83.7786 103.769 83.7626 103.799 83.7466 103.831L80.36 110.727C79.3262 112.836 78.2901 114.942 77.2746 117.058C77.0213 117.585 76.3184 119.05 74.7004 119.05ZM114.498 93.9425C114.459 93.9425 114.418 93.9425 114.379 93.9425C112.805 93.9106 110.438 93.8489 108.012 93.7873C105.189 93.7166 102.284 93.6413 100.454 93.607C99.8241 93.5956 99.322 93.0753 99.3334 92.4454C99.3449 91.8224 99.8538 91.3249 100.475 91.3249C100.481 91.3249 100.488 91.3249 100.495 91.3249C102.33 91.3592 105.242 91.4345 108.072 91.5075C110.493 91.5691 112.855 91.6307 114.425 91.6604C115.176 91.6581 115.192 91.5623 115.237 91.3729C115.32 91.0442 115.331 90.8137 114.774 90.5513L114.14 90.2227L95.6136 81.0509C95.2873 80.8888 95.0568 80.583 94.9952 80.2247C94.9335 79.8665 95.0454 79.5013 95.2964 79.2366L95.6501 78.8646C95.8943 78.6067 96.1134 78.374 96.3439 78.1526L98.165 76.3885C100.009 74.5993 101.855 72.8079 103.727 71.0438C104.313 70.4915 104.27 70.4254 104.062 70.0967C103.884 69.8115 103.841 69.7476 103.124 69.994C100.31 70.9617 97.4849 71.9042 94.662 72.8467L93.4159 73.2643C93.1307 73.3579 92.8408 73.4378 92.5145 73.5268L92.0307 73.6591C91.6815 73.7618 91.3096 73.6865 91.022 73.4674C90.7367 73.2461 90.5701 72.9015 90.577 72.5409L90.9855 51.3401C90.9992 50.5847 90.8691 50.5482 90.6865 50.5003C90.4652 50.4432 90.3328 50.3999 89.9791 51.121C87.891 55.3749 85.796 59.6287 83.6896 63.8734C83.4112 64.4394 82.7243 64.6699 82.1606 64.3915C81.5946 64.1108 81.3641 63.4261 81.6448 62.8625C83.7489 58.6177 85.8439 54.3684 87.9297 50.1146C88.7148 48.5194 89.849 47.9124 91.2822 48.298C92.6309 48.6632 93.2973 49.7015 93.2676 51.3857L92.8865 71.0347L93.9363 70.6855C96.7524 69.7453 99.5708 68.8028 102.378 67.8397C102.978 67.6298 104.806 66.9999 105.99 68.8827C107.239 70.8681 105.769 72.2533 105.287 72.7075C103.423 74.4647 101.588 76.247 99.7511 78.0294L98.0235 79.7044L115.744 88.4905C117.177 89.1661 117.814 90.4509 117.447 91.9274C117.118 93.2624 116.125 93.9425 114.498 93.9425Z" fill="#1f212b" fill-rule="nonzero" opacity="1" stroke="none" vectornator:layerName="path 7"/>
<path d="M66.6557 51.8203C65.9985 50.7934 64.2481 50.7318 62.7625 51.6811C61.2768 52.6305 60.599 54.2485 61.2563 55.2732L77.635 87.1725L99.7281 115.416C100.385 116.443 102.136 116.504 103.621 115.553C105.107 114.601 105.785 112.985 105.128 111.961L88.7488 80.0614L66.6557 51.8203ZM84.7962 86.1296C83.4087 87.0173 81.567 86.6111 80.6793 85.2259C79.7916 83.8383 80.1978 81.9967 81.583 81.1089C82.9683 80.2212 84.8122 80.6274 85.6977 82.0126C86.5877 83.4002 86.1815 85.2418 84.7962 86.1296Z" fill="#dc4c30" fill-rule="nonzero" opacity="1" stroke="#000000" stroke-linecap="butt" stroke-linejoin="miter" stroke-width="2.28211" vectornator:layerName="path 8"/>
<path d="M19.0443 86.6532C18.4327 86.6532 17.926 86.1671 17.9055 85.5532C17.8781 84.7658 17.8781 84.4121 17.8781 83.6179C17.8781 47.9874 46.8655 18.9977 82.496 18.9977C100.84 18.9977 118.387 26.8391 130.637 40.5112C131.057 40.9813 131.018 41.7024 130.548 42.1224C130.08 42.5445 129.359 42.5057 128.937 42.0356C117.118 28.845 100.192 21.2798 82.496 21.2798C48.1229 21.2798 20.1602 49.2448 20.1602 83.6179C20.1602 84.3802 20.1602 84.7156 20.1853 85.471C20.2081 86.1009 19.7152 86.6303 19.0853 86.6532C19.0717 86.6532 19.058 86.6532 19.0443 86.6532ZM19.9799 95.8295C19.4368 95.8295 18.9553 95.4393 18.8571 94.8847C18.7795 94.4466 18.7065 94.0015 18.6381 93.5611C18.5422 92.9381 18.969 92.3561 19.592 92.2603C20.2241 92.1667 20.7969 92.5935 20.8928 93.2142C20.959 93.6433 21.0297 94.0677 21.105 94.4945C21.2123 95.1129 20.7992 95.704 20.1785 95.8135C20.11 95.825 20.0438 95.8295 19.9799 95.8295ZM82.496 148.238C52.3608 148.238 26.4976 127.781 19.5965 98.4905C19.4528 97.8766 19.8339 97.2627 20.4455 97.1189C21.0525 96.9592 21.6733 97.354 21.8193 97.9679C28.4762 126.223 53.4265 145.954 82.496 145.954C116.869 145.954 144.834 117.989 144.834 83.6179C144.834 74.1289 142.757 65.0188 138.661 56.5407C138.387 55.9725 138.625 55.2901 139.193 55.0163C139.761 54.7401 140.443 54.9798 140.715 55.5457C144.962 64.3387 147.114 73.7821 147.114 83.6179C147.116 119.249 118.127 148.238 82.496 148.238ZM136.625 51.5794C136.242 51.5794 135.868 51.3854 135.651 51.0363C135.144 50.2124 134.619 49.4 134.076 48.6013C133.72 48.0787 133.855 47.3712 134.378 47.0175C134.9 46.6615 135.608 46.7961 135.961 47.3187C136.525 48.1448 137.07 48.9869 137.595 49.8427C137.926 50.379 137.757 51.0819 137.219 51.4128C137.036 51.5269 136.828 51.5794 136.625 51.5794Z" fill="#1f212b" fill-rule="nonzero" opacity="1" stroke="none" vectornator:layerName="path 10"/>
<path d="M83.8267 33.4115C83.1968 33.4115 82.6856 32.9003 82.6856 32.2705L82.6856 20.8599C82.6856 20.2301 83.1968 19.7189 83.8267 19.7189C84.4565 19.7189 84.9677 20.2301 84.9677 20.8599L84.9677 32.2705C84.9677 32.9026 84.4565 33.4115 83.8267 33.4115ZM83.8244 147.517C83.1945 147.517 82.6833 147.006 82.6833 146.376L82.6833 134.965C82.6833 134.336 83.1945 133.824 83.8244 133.824C84.4542 133.824 84.9654 134.336 84.9654 134.965L84.9654 146.376C84.9654 147.008 84.4565 147.517 83.8244 147.517ZM145.444 85.9001L134.033 85.9001C133.403 85.9001 132.892 85.3889 132.892 84.759C132.892 84.1291 133.403 83.6179 134.033 83.6179L145.444 83.6179C146.073 83.6179 146.585 84.1291 146.585 84.759C146.585 85.3889 146.073 85.9001 145.444 85.9001ZM31.3382 85.9001L19.9276 85.9001C19.2977 85.9001 18.7865 85.3889 18.7865 84.759C18.7865 84.1291 19.2977 83.6179 19.9276 83.6179L31.3382 83.6179C31.968 83.6179 32.4792 84.1291 32.4792 84.759C32.4792 85.3889 31.968 85.9001 31.3382 85.9001Z" fill="#1f212b" fill-rule="nonzero" opacity="1" stroke="none" vectornator:layerName="path 11"/>
</g>
<g opacity="1" vectornator:layerName="Group 889">
<path d="M214.476 83.8602C214.476 60.5908 233.34 41.7272 256.609 41.7272L811.811 41.7272C835.081 41.7272 853.944 60.5908 853.944 83.8602L853.944 83.8602C853.944 107.13 835.081 125.993 811.811 125.993L256.609 125.993C233.34 125.993 214.476 107.13 214.476 83.8602L214.476 83.8602Z" fill="#000000" fill-rule="nonzero" opacity="1" stroke="#ffe9ab" stroke-linecap="butt" stroke-linejoin="miter" stroke-width="14.9057" vectornator:layerName="Rectangle 5"/>
<g opacity="1" vectornator:layerName="Group 886">
<path d="M214.476 83.8602C214.476 60.5908 233.34 41.7272 256.609 41.7272L811.811 41.7272C835.081 41.7272 853.944 60.5908 853.944 83.8602L853.944 83.8602C853.944 107.13 835.081 125.993 811.811 125.993L256.609 125.993C233.34 125.993 214.476 107.13 214.476 83.8602L214.476 83.8602Z" fill="#000000" fill-rule="nonzero" opacity="1" stroke="#dc4c30" stroke-linecap="butt" stroke-linejoin="miter" stroke-width="5.40144" vectornator:layerName="Rectangle 5"/>
<g opacity="1" vectornator:layerName="Group 885">
<path d="M812.712 53.2689C795.817 53.2689 782.121 66.9645 782.121 83.8602C782.121 100.756 795.817 114.451 812.712 114.451C829.608 114.451 843.304 100.756 843.304 83.8602C843.304 66.9645 829.608 53.2689 812.712 53.2689ZM812.712 107.801C799.512 107.801 788.771 97.0609 788.771 83.8602C788.771 70.6594 799.512 59.9192 812.712 59.9192C825.913 59.9192 836.653 70.6594 836.653 83.8602C836.653 97.0609 825.913 107.801 812.712 107.801Z" fill="#ffe9ab" fill-rule="nonzero" opacity="1" stroke="none" vectornator:layerName="path"/>
<path d="M796.164 84.0577C796.164 74.9529 803.545 67.572 812.649 67.572C821.754 67.572 829.135 74.9529 829.135 84.0577C829.135 93.1625 821.754 100.543 812.649 100.543C803.545 100.543 796.164 93.1625 796.164 84.0577Z" fill="#ffffff" fill-rule="nonzero" opacity="1" stroke="none" vectornator:layerName="Oval 1"/>
<path d="M812.712 62.5793C800.979 62.5793 791.432 72.1264 791.432 83.8602C791.432 95.5939 800.979 105.141 812.712 105.141C824.446 105.141 833.993 95.5939 833.993 83.8602C833.993 72.1264 824.446 62.5793 812.712 62.5793ZM813.693 97.1607L810.123 86.4498L799.412 82.8799L822.023 74.5498L813.693 97.1607Z" fill="#dc4c30" fill-rule="nonzero" opacity="1" stroke="#000000" stroke-linecap="butt" stroke-linejoin="miter" stroke-width="1" vectornator:layerName="path 1"/>
</g>
</g>
</g>
<path d="M38.925 232.397C38.925 208.058 58.6558 188.327 82.9949 188.327C107.334 188.327 127.065 208.058 127.065 232.397C127.065 256.737 107.334 276.467 82.9949 276.467C58.6558 276.467 38.925 256.737 38.925 232.397Z" fill="#1f212b" fill-rule="nonzero" opacity="1" stroke="#ffe9ab" stroke-linecap="butt" stroke-linejoin="miter" stroke-width="3.99016" vectornator:layerName="Oval 3"/>
<path d="M82.9949 188.327L82.9949 161.236" fill="none" opacity="1" stroke="#ffe9ab" stroke-linecap="butt" stroke-linejoin="miter" stroke-width="3.99016" vectornator:layerName="Line 2"/>
<path d="M160.135 83.6179L209.321 83.6179" fill="none" opacity="1" stroke="#ffe9ab" stroke-linecap="butt" stroke-linejoin="miter" stroke-width="3.6116" vectornator:layerName="Line 3"/>
<g opacity="1" vectornator:layerName="Group 807">
<g opacity="1" vectornator:layerName="g">
<path d="M82.9787 262.29C78.7792 262.29 74.6894 261.416 70.8203 259.689C63.53 256.439 57.9423 250.542 55.0873 243.087C52.2323 235.633 52.4506 227.512 55.7022 220.222C60.5042 209.458 71.2232 202.503 83.0124 202.503C87.2119 202.503 91.3017 203.378 95.1695 205.104C110.218 211.818 117 229.523 110.286 244.573C105.487 255.335 94.7666 262.29 82.9787 262.29Z" fill="#0085ff" fill-opacity="0.997759" fill-rule="nonzero" opacity="1" stroke="none" vectornator:layerName="path"/>
<path d="M83.0149 201.632L83.0149 203.378C87.0897 203.378 91.0598 204.227 94.8153 205.902C101.892 209.059 107.317 214.783 110.089 222.019C112.862 229.256 112.65 237.139 109.492 244.216C104.83 254.665 94.4224 261.417 82.9787 261.417C78.9026 261.417 74.9313 260.568 71.1771 258.892C64.1 255.736 58.6757 250.012 55.903 242.775C53.1316 235.539 53.3424 227.656 56.5004 220.579C61.1615 210.131 71.5687 203.379 83.0136 203.378L83.0149 201.632M83.0124 201.632C71.2432 201.633 60.009 208.426 54.9052 219.867C47.9853 235.38 54.9513 253.567 70.4649 260.488C74.5359 262.304 78.7904 263.163 82.9775 263.163C94.7467 263.163 105.981 256.369 111.085 244.928C118.004 229.415 111.038 211.228 95.525 204.307C91.4539 202.491 87.2007 201.632 83.0124 201.632L83.0124 201.632Z" fill="#000000" fill-rule="nonzero" opacity="1" stroke="#ffffff" stroke-linecap="butt" stroke-linejoin="miter" stroke-width="1.33005" vectornator:layerName="path"/>
<path d="M55.2981 229.746C55.2507 229.516 55.3642 228.961 55.454 228.515C55.5425 228.079 55.6274 227.665 55.6274 227.349C55.6274 227.045 56.0776 226.353 56.3757 225.892C56.6027 225.544 56.7985 225.242 56.8883 225.014C57.0255 224.667 57.5519 223.859 58.0184 223.146C58.2217 222.834 58.4162 222.535 58.5759 222.28C58.7119 222.063 58.9925 221.61 58.7044 221.316C58.6121 221.22 58.5011 221.19 58.3763 221.184C58.4138 221.148 58.4449 221.119 58.4724 221.102C58.7954 220.886 60.6239 219.595 60.6726 219.556C60.705 219.522 61.4908 218.705 60.6264 217.094C60.3171 216.523 60.4007 216.367 60.5092 216.171C60.5803 216.041 60.6688 215.879 60.6688 215.656C60.6688 215.506 60.5728 215.37 60.4306 215.32C60.4119 215.313 60.3108 215.279 60.1674 215.259C60.0402 215.246 59.9092 215.297 59.8319 215.401C56.3146 220.175 54.3788 225.822 54.2367 231.734C54.2329 231.905 54.3526 232.058 54.5198 232.091C54.5435 232.097 54.5697 232.1 54.5946 232.1C54.7368 232.1 54.8678 232.014 54.9239 231.88C55.1122 231.423 55.3941 230.238 55.2981 229.746ZM65.7377 246.621C65.5344 246.581 65.1328 246.286 64.8384 246.071C64.3769 245.734 64.1025 245.542 63.8444 245.542C63.6211 245.542 63.1534 245.366 62.8653 245.175C62.7468 245.094 62.5896 245.015 62.4225 244.931C62.1917 244.813 61.8749 244.656 61.7839 244.519C61.6442 244.311 61.2949 243.763 61.0667 243.188L60.9819 242.964C60.8409 242.571 60.7561 242.392 60.0352 241.584L59.8968 241.428C59.3143 240.77 59.2781 240.73 58.8989 240.551L58.642 240.427C58.3576 240.286 58.1655 240.144 57.976 240.006C57.7614 239.85 57.5407 239.688 57.2214 239.561C56.7274 239.36 56.5229 239.204 56.1437 238.874C55.8556 238.619 55.6049 238.471 55.3791 238.414C55.2582 238.386 55.1322 238.417 55.0424 238.503C54.9538 238.591 54.9164 238.717 54.9439 238.838C56.2235 244.445 59.1434 249.508 63.3928 253.477C63.4353 253.517 63.4889 253.547 63.5463 253.563C63.661 253.593 63.7608 253.603 63.8518 253.603C64.0502 253.603 64.1998 253.548 64.3208 253.504C64.4231 253.467 64.4979 253.439 64.6002 253.439C65.1278 253.439 65.7739 252.923 65.8999 252.818C66.0121 252.723 66.057 252.57 66.0096 252.432L65.6142 251.248L66.0121 249.76L66.5422 248.272C66.5559 248.233 66.5634 248.192 66.5634 248.152C66.5622 248.015 66.5397 246.785 65.7377 246.621ZM72.105 207.113C72.2048 207.113 72.3008 207.072 72.3682 206.997C72.3682 206.997 72.7823 206.547 73.1253 206.109C73.2238 205.982 73.2263 205.805 73.1315 205.677C73.0367 205.547 72.8671 205.501 72.7162 205.556C69.3074 206.868 66.2117 208.796 63.5151 211.284C63.4764 211.32 63.4452 211.365 63.4265 211.414C63.3704 211.552 63.3218 211.683 63.2856 211.816C63.2344 212.024 63.2856 212.216 63.4278 212.343C63.6573 212.55 64.0452 212.498 64.3695 212.394L65.2039 212.766C65.25 212.787 65.2999 212.796 65.3498 212.796C65.391 212.796 65.4321 212.788 65.4708 212.775L66.652 212.347C66.738 212.316 66.8079 212.252 66.849 212.171C66.8515 212.165 67.1471 211.594 67.8107 211.123C68.3719 210.72 68.5129 210.522 68.6788 210.244C68.7249 210.167 68.7748 210.081 68.8559 209.975C68.9968 209.785 68.9968 209.785 69.1153 209.667C69.2513 209.531 69.5207 209.261 70.2241 208.505C71.4477 207.181 72.1113 207.113 72.105 207.113L72.105 207.113ZM102.829 244.043C102.689 244.035 102.541 244.099 102.471 244.228L101.67 245.728C101.19 245.938 100.312 246.387 100.184 246.884C100.091 247.257 99.9977 247.781 99.9702 247.938C99.863 248.175 99.4327 249.146 99.3242 249.564C99.2144 249.999 99.3404 250.739 99.6672 251.042C99.7782 251.144 99.9104 251.199 100.048 251.199C100.105 251.199 100.16 251.189 100.216 251.171C100.482 251.082 100.764 250.813 101.062 250.53C101.216 250.381 101.363 250.24 101.478 250.162C101.892 249.885 102.464 248.947 102.59 248.449C102.656 248.187 102.759 247.806 102.855 247.451L103.019 246.848C103.019 246.846 103.019 246.845 103.02 246.844C103.131 246.399 103.246 245.516 103.253 245.149C103.253 244.788 103.141 244.331 103.135 244.311C103.096 244.167 102.975 244.061 102.829 244.043Z" fill="#ffac00" fill-rule="nonzero" opacity="1" stroke="#000000" stroke-linecap="butt" stroke-linejoin="miter" stroke-width="1.33005" vectornator:layerName="path"/>
<path d="M98.2777 207.994C98.1679 207.924 98.0295 207.923 97.9147 207.984L97.689 208.115C97.4857 208.235 96.9406 208.549 96.8159 208.529C96.6014 208.316 96.221 208.018 95.9628 207.822C95.9752 207.757 95.9765 207.7 95.9727 207.655C95.9266 207.077 94.935 206.543 94.3476 206.275C94.3089 206.257 94.2665 206.247 94.2228 206.245L91.9503 206.094L90.3451 206.094C90.1954 206.094 89.9796 206.114 89.7364 206.136C89.4533 206.164 89.129 206.194 88.8396 206.194C88.458 206.194 87.9304 206.447 87.2232 206.804C86.945 206.945 86.6295 207.106 86.5022 207.137C86.3039 207.186 86.0482 207.298 85.7501 207.43C85.4308 207.57 84.9494 207.782 84.7673 207.782C84.2123 207.782 83.5924 208.504 83.3803 208.776C82.7579 209.916 83.0086 210.215 83.091 210.314C83.1571 210.392 83.3479 210.558 83.7046 210.444C84.2434 210.26 84.7847 210.289 84.8558 210.316C84.912 210.477 84.9918 210.692 85.0729 210.906C85.129 211.055 85.1851 211.204 85.2313 211.333C85.1826 211.33 85.1265 211.332 85.0741 211.349C84.4031 211.574 83.8493 211.908 83.7558 211.975C83.1346 212.599 82.5047 213.151 82.3264 213.307C82.1368 213.376 81.6055 213.582 81.2201 213.872C81.0754 213.98 80.8122 214.066 80.554 214.145C80.1561 214.274 79.7433 214.405 79.5313 214.701C79.1084 215.293 79.2668 215.862 79.5537 216.226L79.1197 216.791L78.7629 217.04L77.2812 217.346L76.337 217.504C76.236 217.522 76.1474 217.585 76.0938 217.673C76.0389 217.761 76.0277 217.871 76.0576 217.968C76.0963 218.097 76.0414 218.637 75.9316 219.197L75.9316 221.013C75.9316 221.173 76.0389 221.315 76.1948 221.357C76.5702 221.459 77.8225 221.8 78.1667 221.8L78.3214 221.804C78.7355 221.821 79.4976 221.851 79.9778 221.372C80.428 220.918 81.139 219.935 81.3597 219.605C81.5344 219.343 81.7726 219.076 82.3351 218.888C82.7754 218.74 83.0074 218.545 83.1758 218.401C83.2768 218.314 83.3342 218.269 83.4015 218.247C83.5961 218.18 84.3245 218.046 84.8209 217.96L85.5556 218.452C85.5231 218.542 85.5094 218.652 85.5543 218.777C85.6466 219.04 85.911 219.231 86.9251 219.404L86.9251 219.947C86.9251 220.046 86.9662 220.142 87.0411 220.21C87.1159 220.278 87.2169 220.317 87.313 220.302L88.6263 220.195C88.761 220.184 88.8783 220.097 88.9282 219.971C88.9781 219.846 88.9544 219.703 88.8633 219.601L88.1025 218.743C88.0551 218.691 87.9927 218.653 87.9241 218.634L86.8303 217.534L86.8165 217.377C87.2281 217.607 87.7433 217.892 87.9902 218.015C88.3158 218.178 88.9718 218.624 89.2026 218.784L89.7975 220.192C89.81 220.222 89.8287 220.252 89.8499 220.28L90.7068 221.326C90.8315 221.479 91.0585 221.501 91.2082 221.377C91.3616 221.252 91.3853 221.03 91.2631 220.876C90.9213 220.45 90.839 220.169 90.8402 220.129C90.8402 220.127 90.8964 220.087 91.0598 220.086C91.3167 220.114 92.1835 220.192 92.5477 220.069C92.8134 219.981 93.0417 219.9 93.3061 219.782C93.1464 219.971 93.0442 220.227 93.109 220.549C93.2088 221.055 93.558 221.685 94.1442 222.419C94.2341 222.535 94.3214 222.654 94.4024 222.77C94.7367 223.237 95.1545 223.818 95.6896 223.46C95.8343 223.365 96.1249 223.186 96.4031 223.016C96.3868 223.227 96.3893 223.455 96.4317 223.662C96.4891 223.937 96.5128 224.281 96.524 224.53C95.9615 224.568 95.7981 224.705 95.737 224.904C95.7158 224.973 95.6684 225.209 95.9416 225.393C96.0426 225.461 96.196 225.663 96.3394 225.874C96.1486 225.659 95.863 225.498 95.5424 225.34C95.3292 225.235 95.1084 225.126 94.955 225.012C94.5109 224.68 92.4804 224.247 91.7657 224.102C91.3005 223.818 90.6956 223.557 90.3401 223.839C89.4495 224.548 87.1845 224.121 86.6182 223.894C86.1817 223.721 85.9809 223.5 85.9809 223.369C85.9809 223.021 85.598 221.763 85.4807 221.386C85.4258 221.215 85.26 221.106 85.0766 221.14C84.6837 221.21 83.9803 221.321 83.7695 221.321C83.6136 221.321 83.1122 221.16 82.7355 221.009C82.6843 220.988 82.6282 220.979 82.5696 220.986C82.4524 220.997 81.4196 221.1 80.9444 221.34C80.554 221.537 79.7246 221.849 79.3891 221.961C79.1808 222.031 78.6494 222.109 78.3738 222.148C77.2799 221.736 76.4168 222.747 76.0726 223.428C76.0102 223.557 75.9117 223.671 75.8069 223.791C75.6223 224.001 75.3928 224.267 75.3928 224.657C75.3928 224.836 74.9064 225.363 74.4761 225.647C74.4162 225.686 74.3252 225.743 74.2129 225.811C73.5244 226.234 72.8272 226.687 72.549 227.152C72.2559 227.638 71.8793 228.352 71.752 228.984C71.6398 229.554 71.6398 230.012 71.6398 230.768C71.6398 231.027 71.6273 231.248 71.6136 231.451C71.5899 231.835 71.5674 232.197 71.6435 232.652C71.7707 233.439 73.0018 235.202 73.3236 235.606C73.7901 236.188 74.3389 236.84 74.9251 237.188C75.3654 237.454 75.9828 237.967 76.13 238.092C76.3594 238.397 76.9594 238.82 77.8013 238.503C78.1343 238.379 78.4811 238.304 78.8153 238.23C79.318 238.122 79.8368 238.007 80.3233 237.73C81.0592 237.316 81.5344 237.168 81.7227 237.159C81.7389 237.594 81.9123 237.963 82.2091 238.177C82.4973 238.385 82.8702 238.431 83.2631 238.298C83.3654 238.264 83.4801 238.22 83.5973 238.177C83.8031 238.099 84.1985 237.951 84.3968 237.931C84.3282 238.46 84.4393 239.05 84.5278 239.524C84.5715 239.759 84.6139 239.983 84.6139 240.105C84.6139 240.185 84.6101 240.263 84.6064 240.343C84.5877 240.709 84.5652 241.166 84.9332 241.535C85.0404 241.643 85.2051 241.775 85.3797 241.916C85.5855 242.079 85.9684 242.382 86.0121 242.466C86.0121 242.734 86.1019 243.912 86.37 244.449C86.6232 244.952 86.708 245.405 86.5945 245.632C86.3713 246.074 85.9647 247.233 85.9347 247.332C85.8861 247.579 85.7377 248.417 85.8661 248.793C86.0108 249.229 86.3426 249.71 86.859 250.223C87.1184 250.482 87.2257 250.777 87.3392 251.086C87.4265 251.328 87.5175 251.576 87.6809 251.792C87.9266 252.121 88.4006 253.098 88.5739 253.468L89.1227 254.46L89.1227 255.327C89.1227 255.433 89.1701 255.532 89.25 255.6C89.3148 255.655 89.3959 255.685 89.4795 255.685C89.4994 255.685 89.5206 255.683 89.5406 255.678C89.6167 255.666 91.3815 255.355 91.8168 255.245C92.3207 255.116 93.5131 254.324 93.9734 253.866C94.2041 253.633 94.3114 253.426 94.4062 253.245C94.506 253.05 94.5858 252.899 94.819 252.711C95.3566 252.284 96.3282 251.535 96.3282 251.535C96.423 251.463 96.4741 251.347 96.4667 251.229L96.3719 249.757L97.5518 248.182L98.5533 247.176C98.8415 246.782 99.4988 245.806 99.3616 245.275C99.2917 244.989 99.1458 243.7 99.0585 242.844C99.2007 242.535 99.5112 241.9 99.7345 241.603C99.8705 241.415 99.954 241.221 100.036 241.035C100.166 240.736 100.291 240.453 100.639 240.162C101.222 239.677 101.64 239.106 101.945 238.69L102.204 238.339C102.548 237.88 103.087 237.164 103.279 236.874L103.279 236.873C103.466 236.595 103.626 236.024 103.762 235.487C103.792 235.393 103.783 235.287 103.732 235.196C103.656 235.067 103.509 234.999 103.365 235.022L101.668 235.305C101.252 234.653 100.551 233.694 99.9752 232.908C99.5412 232.316 99.1308 231.754 99.0061 231.546C98.7292 231.083 98.4249 230.109 98.2977 229.604C98.2216 229.306 97.9833 228.737 97.7726 228.235C97.6653 227.978 97.5717 227.756 97.5343 227.65C97.5306 227.636 97.5169 227.616 97.5119 227.6C98.6668 229.264 100.157 231.486 100.308 231.787C100.373 231.919 100.401 232.109 100.433 232.306C100.484 232.639 100.541 233.017 100.806 233.279C101.607 234.079 103.024 233.428 103.503 233.111C103.6 233.047 103.768 232.954 103.961 232.843C104.561 232.505 105.038 232.226 105.281 231.985C105.494 231.777 105.494 231.777 105.725 231.627L106.082 231.394C106.669 231.001 107.056 230.713 107.096 230.311C107.108 230.174 107.085 229.97 106.886 229.771C106.679 229.563 106.223 228.788 105.983 228.352C105.907 228.212 105.749 228.142 105.592 228.174C104.85 228.339 104.164 227.965 104.094 227.879C104.094 227.663 103.909 227.275 103.67 226.863C103.89 227.004 104.11 227.187 104.322 227.364C104.797 227.758 105.246 228.132 105.778 228.132C106.276 228.132 106.533 228.281 107.151 228.636L107.314 228.731C107.692 228.944 107.955 229.194 108.188 229.415C108.397 229.612 108.594 229.797 108.832 229.918C109.089 230.047 109.549 230.579 109.736 230.813C109.913 231.223 110.387 232.359 110.467 232.69C110.467 232.691 110.467 232.692 110.467 232.694C110.523 232.908 110.672 233.255 110.843 233.655C110.919 233.832 110.996 234.013 111.062 234.178C111.118 234.315 111.249 234.401 111.391 234.401C111.41 234.401 111.43 234.4 111.45 234.397C111.616 234.369 111.738 234.231 111.748 234.066L111.774 233.658C111.807 233.25 111.834 232.837 111.834 232.423C111.837 222.456 106.769 213.326 98.2777 207.994ZM93.9584 218.637C93.9148 218.35 93.8973 218.164 94.007 218.024C94.3688 217.579 94.834 217.387 95.152 217.28C95.4402 217.185 96.2035 216.815 96.4978 216.669L96.8408 216.731C96.2683 217.295 96.3669 217.493 96.4292 217.622C96.4654 217.693 96.6076 217.916 96.9718 217.822C97.1951 217.781 97.9971 218.137 98.4947 218.512C98.5895 218.582 98.5858 218.759 98.5571 218.915C98.1629 218.876 97.4508 218.804 96.9381 218.728C96.1374 218.619 94.9413 218.83 94.8914 218.839C94.8527 218.846 94.8153 218.86 94.7816 218.878L93.901 219.373C94.0357 219.147 93.9921 218.854 93.9584 218.637ZM87.2107 212.152C87.3579 212.17 87.5063 212.075 87.5662 211.933C87.5674 211.929 87.7744 211.43 88.0626 211.046C88.1711 210.899 88.2783 210.742 88.3756 210.597C88.5228 210.905 88.6725 211.231 88.7199 211.369C88.7498 211.484 88.6675 211.912 88.544 212.313C88.0613 212.613 87.4926 212.922 87.3928 212.944C87.2319 212.893 86.6893 212.482 86.1118 212.003C86.3788 212.066 86.7342 212.121 87.2107 212.152Z" fill="#ffac00" fill-rule="nonzero" opacity="1" stroke="#000000" stroke-linecap="butt" stroke-linejoin="miter" stroke-width="1.33005" vectornator:layerName="path"/>
<path d="M81.3336 212.112L80.1736 210.724L79.5425 209.499C79.4901 209.398 79.3941 209.327 79.283 209.309C79.1708 209.282 79.0573 209.321 78.975 209.401L78.385 209.956C78.3127 210.023 78.2715 210.117 78.2715 210.218L78.2715 211.732L77.2163 211.435C77.0405 211.382 76.8609 211.471 76.7885 211.637L76.347 212.64C76.2983 212.751 76.3096 212.881 76.3757 212.982L76.8147 213.652C76.8696 213.736 76.9569 213.794 77.0567 213.81C77.0766 213.812 77.0953 213.814 77.1153 213.814C77.1951 213.814 77.2725 213.786 77.3373 213.738L78.2678 213.012L78.2678 213.454C78.2678 213.564 78.3177 213.668 78.4037 213.735C78.4898 213.804 78.5995 213.831 78.7093 213.804L80.6476 213.357C80.7324 213.339 80.806 213.29 80.8583 213.219L81.346 212.551C81.4446 212.421 81.4396 212.238 81.3336 212.112Z" fill="#ffac00" fill-rule="nonzero" opacity="1" stroke="#000000" stroke-linecap="butt" stroke-linejoin="miter" stroke-width="1.33005" vectornator:layerName="path"/>
<path d="M102.168 233.155L53.0093 233.155C52.8372 233.155 52.6975 233.015 52.6975 232.843C52.6975 232.671 52.8372 232.531 53.0093 232.531L102.168 232.531C102.34 232.531 102.48 232.671 102.48 232.843C102.48 233.015 102.34 233.155 102.168 233.155ZM83.2182 221.504C75.5387 221.504 67.8593 218.371 61.5955 212.107C61.4733 211.985 61.4733 211.788 61.5955 211.666C61.7178 211.544 61.9148 211.544 62.0371 211.666C74.3102 223.939 92.1287 223.938 104.402 211.666C104.524 211.544 104.721 211.544 104.843 211.666C104.966 211.788 104.966 211.985 104.843 212.107C98.577 218.371 90.8976 221.504 83.2182 221.504Z" fill="#000000" fill-rule="nonzero" opacity="1" stroke="none" vectornator:layerName="path"/>
<path d="M82.5085 262.25C82.4361 262.25 82.3626 262.224 82.3039 262.173C72.7723 253.91 67.5238 243.393 67.5238 232.56C67.5238 221.779 72.7723 211.29 82.3039 203.027C82.4336 202.914 82.6307 202.929 82.7442 203.057C82.8565 203.187 82.8428 203.385 82.713 203.498C73.3211 211.641 68.1487 221.963 68.1487 232.56C68.1487 243.209 73.3211 253.559 82.713 261.703C82.8428 261.815 82.8577 262.012 82.7442 262.143C82.6831 262.213 82.5958 262.25 82.5085 262.25ZM83.888 262.25C83.8007 262.25 83.7133 262.214 83.6522 262.143C83.54 262.013 83.5537 261.815 83.6834 261.703C93.0753 253.559 98.2478 243.209 98.2478 232.56C98.2478 221.963 93.0753 211.642 83.6834 203.498C83.5537 203.385 83.5387 203.188 83.6522 203.057C83.7657 202.928 83.9616 202.914 84.0925 203.027C93.6229 211.29 98.8726 221.779 98.8726 232.56C98.8726 243.394 93.6229 253.91 84.0925 262.173C84.0326 262.224 83.9603 262.25 83.888 262.25Z" fill="#000000" fill-rule="nonzero" opacity="1" stroke="none" vectornator:layerName="path"/>
<path d="M104.621 253.249C104.541 253.249 104.462 253.219 104.401 253.158C92.1249 240.884 74.3089 240.884 62.0358 253.158C61.9136 253.28 61.7165 253.28 61.5943 253.158C61.4721 253.035 61.4721 252.838 61.5943 252.716C74.1219 240.186 92.312 240.187 104.841 252.716C104.963 252.838 104.963 253.035 104.841 253.158C104.781 253.217 104.701 253.249 104.621 253.249Z" fill="#000000" fill-rule="nonzero" opacity="1" stroke="none" vectornator:layerName="path"/>
<path d="M112.869 233.155L106.069 233.155C105.897 233.155 105.758 233.015 105.758 232.843C105.758 232.671 105.897 232.531 106.069 232.531L112.869 232.531C113.042 232.531 113.181 232.671 113.181 232.843C113.181 233.015 113.042 233.155 112.869 233.155Z" fill="#000000" fill-rule="nonzero" opacity="1" stroke="none" vectornator:layerName="path"/>
<path d="M83.2182 262.919C83.0461 262.919 82.9064 262.779 82.9064 262.607L82.9064 226.49C82.9064 226.318 83.0461 226.178 83.2182 226.178C83.3903 226.178 83.53 226.318 83.53 226.49L83.53 262.607C83.53 262.778 83.3903 262.919 83.2182 262.919Z" fill="#000000" fill-rule="nonzero" opacity="1" stroke="none" vectornator:layerName="path"/>
<path d="M83.2182 209.412C83.0461 209.412 82.9064 209.272 82.9064 209.1L82.9064 202.412C82.9064 202.24 83.0461 202.101 83.2182 202.101C83.3903 202.101 83.53 202.24 83.53 202.412L83.53 209.1C83.53 209.272 83.3903 209.412 83.2182 209.412Z" fill="#000000" fill-rule="nonzero" opacity="1" stroke="none" vectornator:layerName="path"/>
<path d="M83.2182 222.789C83.0461 222.789 82.9064 222.649 82.9064 222.477L82.9064 213.113C82.9064 212.941 83.0461 212.801 83.2182 212.801C83.3903 212.801 83.53 212.941 83.53 213.113L83.53 222.477C83.53 222.649 83.3903 222.789 83.2182 222.789Z" fill="#000000" fill-rule="nonzero" opacity="1" stroke="none" vectornator:layerName="path"/>
</g>
</g>
</g>
<text fill="#ffffff" filter="url(#Filter_2)" font-family="AldotheApache" font-size="32" stroke="#000000" stroke-linecap="round" stroke-linejoin="round" stroke-width="1" text-anchor="start" transform="matrix(1 0 0 1 228.592 47.6214)" vectornator:layerName="sampleText" vectornator:shadowAngle="-1.56298" vectornator:shadowColor="#000000" vectornator:shadowOffset="0" vectornator:shadowOpacity="1" vectornator:shadowRadius="6" vectornator:width="547.244" x="0" y="0">
<tspan textLength="537.422" x="0" y="23">10248 Vancouver Avenue, Port Townsend, </tspan>
<tspan textLength="188.922" x="0" y="57.4663">WA 98368-0000</tspan>
</text>
</g>
</svg>
